<?xml version="1.0" standalone="no"?>
<!DOCTYPE svg PUBLIC "-//W3C//DTD SVG 20010904//EN"
 "http://www.w3.org/TR/2001/REC-SVG-20010904/DTD/svg10.dtd">
<svg version="1.0" xmlns="http://www.w3.org/2000/svg"
 width="512.000000pt" height="512.000000pt" viewBox="0 0 512.000000 512.000000"
 preserveAspectRatio="xMidYMid meet">
<metadata>
Created by potrace 1.14, written by Peter Selinger 2001-2017
</metadata>
<g transform="translate(0.000000,512.000000) scale(0.100000,-0.100000)"
fill="#000000" stroke="none">
<path d="M2420 4549 c-240 -16 -515 -90 -735 -198 -400 -196 -719 -516 -915
-916 -139 -284 -201 -553 -201 -875 1 -478 147 -887 458 -1275 253 -317 630
-558 1028 -659 345 -86 662 -87 1000 -1 881 223 1504 1024 1505 1935 1 819
-508 1562 -1275 1863 -253 99 -577 146 -865 126z m326 -800 c78 -13 232 -64
319 -105 349 -162 588 -469 671 -859 23 -110 23 -342 0 -450 -54 -249 -159
-447 -326 -615 -348 -350 -853 -452 -1309 -264 -151 63 -305 169 -427 296
-290 299 -392 778 -253 1192 134 401 480 707 900 795 107 22 327 28 425 10z"/>
</g>
</svg>
